PathFileType	4	(X/Y/Z)	/Users/niels/Desktop/University/Third Semester/Perception and Action/Exam/Gymnastics Motion Tracking/Analyzed Videos/7Nov24/Kraftspring/Sequence 01_Sports2D/Sequence 01_Sports2D_px_person00.trc
DataRate	CameraRate	NumFrames	NumMarkers	Units	OrigDataRate	OrigDataStartFrame	OrigNumFrames
49.85207100591716	49.85207100591716	11	22	m	49.85207100591716	211	338
Frame#	Time	Hip			RHip			RKnee			RAnkle			RBigToe			RSmallToe			RHeel			LHip			LKnee			LAnkle			LBigToe			LSmallToe			LHeel			Neck			Head			Nose			RShoulder			RElbow			RWrist			LShoulder			LElbow			LWrist		
		X1	Y1	Z1	X2	Y2	Z2	X3	Y3	Z3	X4	Y4	Z4	X5	Y5	Z5	X6	Y6	Z6	X7	Y7	Z7	X8	Y8	Z8	X9	Y9	Z9	X10	Y10	Z10	X11	Y11	Z11	X12	Y12	Z12	X13	Y13	Z13	X14	Y14	Z14	X15	Y15	Z15	X16	Y16	Z16	X17	Y17	Z17	X18	Y18	Z18	X19	Y19	Z19	X20	Y20	Z20	X21	Y21	Z21	X22	Y22	Z22
211	4.232522255192878	1.331789674661904	-0.4792461327890552	0.0	1.3282952351262913	-0.4695893943979831	0.0	1.4021883924587148	-0.32858178458720616	0.0	1.5450887556976443	-0.3381170028486229	0.0	1.5733722473078784	-0.27088932459362736	0.0	1.5814765705104783	-0.28019991408058736	0.0	1.5639173240945337	-0.3520379611980175	0.0	1.3367932730383563	-0.4902915593237251	0.0	1.43067583307457	-0.3922598937907526	0.0	1.5658040892836633	-0.4024889555852682	0.0	1.592612868388486	-0.3052366454952495	0.0	1.5894697955279908	-0.32746940553360265	0.0	1.5844911236258985	-0.4126760345951953	0.0	1.2535586856644572	-0.6800824350116021	0.0	1.281256040488744	-0.7803670906754928	0.0	1.2257769535355043	-0.7402499227822303	0.0	1.2442628884873095	-0.6717045758896721	0.0	1.1560715838488838	-0.7087054025459	0.0	1.1009213977004968	-0.7832958415217012	0.0	1.2606301837020533	-0.6666930682231694	0.0	1.1646881284541104	-0.7053922904817386	0.0	1.1087629933945489	-0.7749294123340394	0.0
212	4.252581602373887	1.3394534517450585	-0.4785893639573043	0.0	1.3363733718725994	-0.468340701278869	0.0	1.417687225221804	-0.33232200888656205	0.0	1.560401115901484	-0.3490814337131802	0.0	1.590144636892549	-0.28147625834232404	0.0	1.5979970760429805	-0.2912311568116514	0.0	1.5787772520924603	-0.36503321719928755	0.0	1.3437581198582618	-0.4895948448796561	0.0	1.4417414358255651	-0.39783241137333336	0.0	1.575578348943025	-0.41415664895382676	0.0	1.607327659432905	-0.3202281214898647	0.0	1.603688762457267	-0.3419358148693609	0.0	1.595058790240712	-0.4254947407060787	0.0	1.2566128679880764	-0.6773591517076534	0.0	1.282466105127236	-0.7795583267288834	0.0	1.2288688133950707	-0.7385347372176888	0.0	1.245588237728997	-0.6699329551292758	0.0	1.1578176995949294	-0.7070864238934826	0.0	1.101239932915532	-0.781403707496929	0.0	1.2647541706725258	-0.6651515167518111	0.0	1.1688699060292835	-0.7064191432013353	0.0	1.1119810736420734	-0.7757779450917314	0.0
213	4.272640949554896	1.346916253451613	-0.47815989605644443	0.0	1.3441464327198316	-0.46741104893342283	0.0	1.4326240282348752	-0.33631000974909164	0.0	1.5750029471163765	-0.36007980299645703	0.0	1.605865395248904	-0.2916031858737734	0.0	1.6134968492402946	-0.30185332245353	0.0	1.5928892584949632	-0.3777366188290306	0.0	1.3506031350031273	-0.48917360071392235	0.0	1.4525631638775296	-0.4033915765060252	0.0	1.5848945906381078	-0.42593589013700506	0.0	1.6206073638597775	-0.33657145450217685	0.0	1.616727815664468	-0.35703057009810424	0.0	1.6048896474968704	-0.43815150249460716	0.0	1.25955128087997	-0.6747789202930026	0.0	1.2832988411776038	-0.7787485134049967	0.0	1.2320835618941783	-0.7369645529645764	0.0	1.247169516718737	-0.6679029649888146	0.0	1.15942228681294	-0.7054609343811129	0.0	1.1019695075185327	-0.7797101655923314	0.0	1.268776683046287	-0.6633132933153442	0.0	1.1726008463789723	-0.7072320875153023	0.0	1.1148995435022013	-0.7765357260675982	0.0
214	4.292700296735905	1.3541872338896392	-0.4779353972687486	0.0	1.351666952775359	-0.4668554078710711	0.0	1.4469714561463178	-0.3405089272252504	0.0	1.5888873675148905	-0.37100789559842495	0.0	1.6205197647370966	-0.30135312624624744	0.0	1.627965116518139	-0.3120764525503061	0.0	1.606246995514918	-0.38992116462868787	0.0	1.357356786238467	-0.4890600274361967	0.0	1.463142179351732	-0.40887512401333176	0.0	1.593729539778242	-0.4377552744423886	0.0	1.6323833853417438	-0.3540703376892924	0.0	1.6284400884151866	-0.37259287118495155	0.0	1.6139189020093154	-0.4505872217145202	0.0	1.2624345419494907	-0.6723562135234189	0.0	1.283702724733104	-0.777912901348793	0.0	1.2353300960602218	-0.7355012026186308	0.0	1.2490996636869771	-0.6655789671712886	0.0	1.160941826084224	-0.7038221799897121	0.0	1.103137709782039	-0.7781998657202636	0.0	1.2727031044564967	-0.6612066329383377	0.0	1.175904801760534	-0.7077263370473196	0.0	1.1176024606833286	-0.7770939591276049	0.0
215	4.312759643916913	1.3612969942240276	-0.4778750605438932	0.0	1.3590447930511258	-0.4666769128093585	0.0	1.4607108438457332	-0.3449013702078771	0.0	1.602028730866385	-0.3817994787840611	0.0	1.6341983116029695	-0.3109280832729663	0.0	1.6414937619822783	-0.32205524882086267	0.0	1.6188520550023353	-0.40147726009905205	0.0	1.364072762556424	-0.48920657791059735	0.0	1.473384537306239	-0.41418514882488894	0.0	1.60205128525712	-0.44945857822825364	0.0	1.6427430889257377	-0.3722622770892649	0.0	1.6388386185649144	-0.3882645718323307	0.0	1.6221279990154718	-0.46266781913914024	0.0	1.2653126096812854	-0.6701551721913904	0.0	1.2836543598453387	-0.7770197602258903	0.0	1.2384401848714337	-0.7340231237201126	0.0	1.2513869586199586	-0.6630157699442375	0.0	1.1624201446754365	-0.7021766123440982	0.0	1.1047315392359518	-0.7768409741288128	0.0	1.2764665495139262	-0.6589772684368906	0.0	1.178810021282169	-0.7078592711058798	0.0	1.1201885513848293	-0.7773755687903529	0.0
216	4.3328189910979225	1.3682840141861585	-0.4779399851816679	0.0	1.3663966411176658	-0.4668481730831701	0.0	1.4738124865863718	-0.3494865696372201	0.0	1.6143571201452553	-0.39240218598117654	0.0	1.6470573517190985	-0.3206027767531047	0.0	1.6542296762081499	-0.33202548416544214	0.0	1.630669304794287	-0.41239660135122586	0.0	1.3707973123408848	-0.48953655908921423	0.0	1.4831378515269136	-0.41923281630126713	0.0	1.609827512888168	-0.4608598397331159	0.0	1.6518793625807429	-0.39043294159175657	0.0	1.6480574373616934	-0.40353902449775575	0.0	1.6295394549033644	-0.47422858258134065	0.0	1.2682214510392633	-0.668279732258024	0.0	1.2831484700479348	-0.776056441860717	0.0	1.2412090176854385	-0.7323940971213571	0.0	1.2540164404435874	-0.6603490173766215	0.0	1.1639039211105011	-0.7005409826357318	0.0	1.1067093556783905	-0.7755914321200205	0.0	1.2799627757222436	-0.6568489265935771	0.0	1.1813338454254927	-0.7076308267992759	0.0	1.1227492862356259	-0.7773215962092214	0.0
217	4.352878338278932	1.3752307421422798	-0.4781019034350903	0.0	1.373844251586132	-0.46733205053096016	0.0	1.4863337178760367	-0.3543028632492905	0.0	1.6258581752671943	-0.4028430508318895	0.0	1.659365477720864	-0.3307180475702519	0.0	1.6664202543479476	-0.34229329780115025	0.0	1.641709613624438	-0.42281790904753297	0.0	1.377583925277154	-0.4899893354645001	0.0	1.4923211941024788	-0.4240193724625841	0.0	1.6170921805159872	-0.471893846780863	0.0	1.6600952967262013	-0.4078063026955397	0.0	1.6563651515867817	-0.4179719837031659	0.0	1.636268708403024	-0.48522417591692973	0.0	1.2712096621791498	-0.6668173828960631	0.0	1.2821850228091232	-0.7750460939283504	0.0	1.2435157790002476	-0.7305301184136376	0.0	1.2570152019414853	-0.6577375833681047	0.0	1.1654683124260616	-0.6989057049047367	0.0	1.1090330746985473	-0.7743814067439652	0.0	1.283127173929296	-0.6550358689937646	0.0	1.1835245306135946	-0.7070452883917592	0.0	1.1253837476366135	-0.7768629024141355	0.0
218	4.372937685459941	1.382277535933294	-0.4783495122714467	0.0	1.3815160060562546	-0.4681026045717445	0.0	1.498472806072927	-0.359431475678372	0.0	1.6366416299085977	-0.41327499769961207	0.0	1.6714864055949934	-0.34165599754488135	0.0	1.6784084093651113	-0.3532253993450947	0.0	1.6520973552176998	-0.4330314692737976	0.0	1.3845105535187643	-0.49053831286834204	0.0	1.5010003353078183	-0.42866668516048484	0.0	1.623976692378317	-0.48268867855896774	0.0	1.6677798519273752	-0.42380287416977297	0.0	1.6641417122990516	-0.4313545147460368	0.0	1.642541552573972	-0.49581575986800774	0.0	1.2743564020477867	-0.6657972015760677	0.0	1.2807736259578961	-0.7740418463559952	0.0	1.2453847185894364	-0.7284149380788243	0.0	1.260458091008071	-0.6553079304230095	0.0	1.1672106029929774	-0.6972159482105398	0.0	1.1116922827840687	-0.773111007608849	0.0	1.28598263916094	-0.653677355016599	0.0	1.1855001635282107	-0.7060955351877117	0.0	1.128213957600144	-0.7759170567948375	0.0
219	4.392997032640949	1.3895753713912198	-0.47870218495172157	0.0	1.3895058517649657	-0.4691637563933348	0.0	1.5104814994759437	-0.3649552528055664	0.0	1.6468821842731087	-0.42391368556059356	0.0	1.6837335127312716	-0.35374698103679175	0.0	1.6905015469376512	-0.3651690224479333	0.0	1.6620205038395	-0.4433809762042116	0.0	1.3916540514417537	-0.4912044206202194	0.0	1.5093433273032626	-0.4333653004486259	0.0	1.6306637269506363	-0.4934896292201749	0.0	1.675315555685957	-0.4382504012280964	0.0	1.6717837742120492	-0.4437307956305127	0.0	1.6486344043878594	-0.5063153312645499	0.0	1.2777514862569062	-0.6651833173184889	0.0	1.2789525893214857	-0.7731102495545541	0.0	1.2469405234601467	-0.7260731413421828	0.0	1.2644139169124409	-0.6531278768248565	0.0	1.1692128469187975	-0.6953895929889472	0.0	1.1146965428762368	-0.7716739537465931	0.0	1.2886363587208347	-0.6528213332194382	0.0	1.1874532120998693	-0.7047840685980777	0.0	1.1313721516810156	-0.7744276623073726	0.0
220	4.413056379821958	1.3972068413732721	-0.47922072163990603	0.0	1.3978096821651655	-0.47054413042442456	0.0	1.5225147179064809	-0.3708974977409712	0.0	1.6566965422506983	-0.434907021930456	0.0	1.6961928355281821	-0.36712954610236415	0.0	1.7028017457933484	-0.3783130961127636	0.0	1.6716104475760538	-0.45412115074939907	0.0	1.399035858736031	-0.49205807982245403	0.0	1.5175202469023628	-0.4382880221776075	0.0	1.6372997048382079	-0.5045146730949622	0.0	1.6829629200187595	-0.4514025778302402	0.0	1.679583100751679	-0.4553327682006222	0.0	1.65476924272892	-0.5170426489914628	0.0	1.2814489719064615	-0.664884862588161	0.0	1.2768089705480046	-0.7723060859308347	0.0	1.2483473962621259	-0.7235432553641138	0.0	1.2688848259495753	-0.6512092045401976	0.0	1.1715135706773123	-0.6933452460106789	0.0	1.1180467044914792	-0.7699783463664718	0.0	1.2912407032882727	-0.6524321417149144	0.0	1.189624723740266	-0.703145864628926	0.0	1.1349617166787855	-0.7724025516056935	0.0
221	4.433115727002967	1.405154427068429	-0.48000531890792836	0.0	1.4063335524741352	-0.4722674331967464	0.0	1.5345838591212067	-0.37720838033318305	0.0	1.6661020576453505	-0.44627375533019814	0.0	1.7086745298409352	-0.3817042528066348	0.0	1.7151619625688947	-0.39262922813616286	0.0	1.6808814696023626	-0.46536171890337497	0.0	1.4066199196216722	-0.49318409357936266	0.0	1.5256519815160061	-0.44353123677215794	0.0	1.6439355193199605	-0.5158710896506311	0.0	1.6908123956627852	-0.463792770933266	0.0	1.6876645272673578	-0.46657619076473034	0.0	1.6610304712197037	-0.5282142400447339	0.0	1.2854348754306546	-0.664778313726365	0.0	1.274485992772401	-0.7716217658524129	0.0	1.2497692406947967	-0.7208443703622519	0.0	1.2737958196288426	-0.6495238707214864	0.0	1.1741113996539765	-0.6910172228107028	0.0	1.121721139798569	-0.7679441589615421	0.0	1.2939351528122622	-0.6524074309031437	0.0	1.192231639621301	-0.7012387261884465	0.0	1.1390170204561758	-0.7699083850166114	0.0
